<?xml version="1.0" encoding="UTF-8"?>
<svg width="289px" height="288px" viewBox="0 0 289 288" version="1.1" xmlns="http://www.w3.org/2000/svg" xmlns:xlink="http://www.w3.org/1999/xlink">
    <!-- Generator: Sketch 46.2 (44496) - http://www.bohemiancoding.com/sketch -->
    <title>logo</title>
    <desc>Created with Sketch.</desc>
    <defs></defs>
    <g id="Page-1" stroke="none" stroke-width="1" fill="none" fill-rule="evenodd">
        <g id="logo" transform="translate(0.000000, -1.000000)" fill="#FFFFFF">
            <path d="M49.88,212 C37.7955185,215.250984 30.6341861,227.68244 33.8843005,239.767155 C37.1344149,251.85187 49.5653551,259.014097 61.6503044,255.764853 C73.7352537,252.515608 80.8983752,240.085183 77.65,228 C76.0897759,222.195377 72.2872719,217.248448 67.0792144,214.247767 C61.8711568,211.247085 55.6842865,210.438523 49.88,212 L49.88,212 Z" id="Shape"></path>
            <path d="M227.49,211.85 C218.637895,214.22736 212.089748,221.703354 210.899327,230.791505 C209.708906,239.879657 214.11068,248.789937 222.051854,253.366983 C229.993029,257.944029 239.909487,257.286332 247.176628,251.700612 C254.443769,246.114893 257.630236,236.701332 255.25,227.85 C252.000822,215.76735 239.573705,208.604747 227.49,211.85 L227.49,211.85 Z" id="Shape"></path>
            <path d="M227.35,34.25 C215.265518,37.500984 208.104186,49.9324396 211.354301,62.017155 C214.604415,74.1018704 227.035355,81.2640974 239.120304,78.0148526 C251.205254,74.7656078 258.368375,62.3351831 255.12,50.25 C253.559776,44.4453766 249.757272,39.4984481 244.549214,36.4977667 C239.341157,33.4970854 233.154286,32.6885228 227.35,34.25 L227.35,34.25 Z" id="Shape"></path>
            <path d="M49.75,34.38 C37.6655185,37.630984 30.5041861,50.0624396 33.7543005,62.147155 C37.0044149,74.2318704 49.4353551,81.3940974 61.5203044,78.1448526 C73.6052537,74.8956078 80.7683752,62.4651831 77.52,50.38 C75.9597759,44.5753766 72.1572719,39.6284481 66.9492144,36.6277667 C61.7411568,33.6270854 55.5542865,32.8185228 49.75,34.38 L49.75,34.38 Z" id="Shape"></path>
            <path d="M73.57,123.25 C64.7178952,125.62736 58.1697485,133.103354 56.9793273,142.191505 C55.7889062,151.279657 60.1906797,160.189937 68.1318543,164.766983 C76.0730288,169.344029 85.9894866,168.686332 93.2566279,163.100612 C100.523769,157.514893 103.710236,148.101332 101.33,139.25 C98.0808216,127.16735 85.6537047,120.004747 73.57,123.25 L73.57,123.25 Z" id="Shape"></path>
            <path d="M203.67,123 C194.817895,125.37736 188.269748,132.853354 187.079327,141.941505 C185.888906,151.029657 190.29068,159.939937 198.231854,164.516983 C206.173029,169.094029 216.089487,168.436332 223.356628,162.850612 C230.623769,157.264893 233.810236,147.851332 231.43,139 C228.180822,126.91735 215.753705,119.754747 203.67,123 L203.67,123 Z" id="Shape"></path>
            <path d="M138.69,188.13 C126.605518,191.380984 119.444186,203.81244 122.694301,215.897155 C125.944415,227.98187 138.375355,235.144097 150.460304,231.894853 C162.545254,228.645608 169.708375,216.215183 166.46,204.13 C164.899776,198.325377 161.097272,193.378448 155.889214,190.377767 C150.681157,187.377085 144.494286,186.568523 138.69,188.13 L138.69,188.13 Z" id="Shape"></path>
            <path d="M138.4,58.14 C126.315518,61.390984 119.154186,73.8224396 122.404301,85.907155 C125.654415,97.9918704 138.085355,105.154097 150.170304,101.904853 C162.255254,98.6556078 169.418375,86.2251831 166.17,74.14 C164.609776,68.3353766 160.807272,63.3884481 155.599214,60.3877667 C150.391157,57.3870854 144.204286,56.5785228 138.4,58.14 Z" id="Shape"></path>
            <path d="M192.56,67.06 C195.971167,79.701001 205.0618,90.0397077 217.162465,95.0401932 C229.263131,100.040679 243.000264,99.1353301 254.34,92.59 L254.34,92.59 C255.806073,91.7632201 257.372202,91.1280306 259,90.7 C269.83,87.7 282.55,93.38 286.76,103.78 C291.28591,114.922494 286.323038,127.660115 275.451769,132.803511 C264.580499,137.946908 251.584708,133.705858 245.84,123.14 C244.774566,121.059601 243.490663,119.098548 242.01,117.29 C230.442224,103.696713 211.629392,98.7515214 194.872429,104.899293 C178.115466,111.047064 166.964348,126.985387 166.932106,144.834473 C166.899865,162.683558 177.993329,178.662063 194.727973,184.870332 C211.462616,191.078601 230.293191,186.201408 241.91,172.65 C243.479494,170.726965 244.849844,168.649663 246,166.45 C252.18795,155.694171 265.915642,151.978566 276.683844,158.14496 C287.452045,164.311353 291.19514,178.031575 285.050327,188.812107 C278.905515,199.592638 265.192818,203.363206 254.4,197.24 L254.4,197.24 C237.878275,187.721204 217.023053,190.485714 203.551915,203.98028 C190.080778,217.474846 187.35251,238.33484 196.9,254.84 L196.9,254.84 C197.692292,256.25807 198.303724,257.769852 198.72,259.34 C201.94,270.83 195.87,283.75 184.61,287.68 C173.472611,291.622239 161.175306,286.345901 156.358059,275.558092 C151.540812,264.770284 155.82039,252.091613 166.19,246.43 C168.296985,245.330647 170.28715,244.020623 172.13,242.52 C185.680608,231.031926 190.684209,212.343581 184.68652,195.621663 C178.688831,178.899745 162.947938,167.651876 145.184805,167.395174 C127.421671,167.138472 111.362325,177.926784 104.883932,194.468406 C98.4055392,211.010027 102.867019,229.835155 116.08,241.71 C118.250361,243.579911 120.62154,245.20318 123.15,246.55 C133.861669,252.783497 137.515633,266.505475 131.322434,277.240493 C125.129235,287.975512 111.421086,291.681017 100.662869,285.528204 C89.9046524,279.37539 86.147659,265.681263 92.26,254.9 L92.26,254.9 C101.778796,238.378275 99.0142858,217.523053 85.5197201,204.051915 C72.0251544,190.580778 51.1651595,187.85251 34.66,197.4 L34.66,197.4 C32.8975339,198.331183 31.0219526,199.030324 29.08,199.48 C17.6283521,202.566734 5.73387605,196.300769 1.80320162,185.110686 C-2.12747282,173.920602 3.23563408,161.592668 14.1020523,156.839867 C24.9684705,152.087065 37.661448,156.517551 43.21,167 C44.2578201,169.072114 45.5286789,171.023671 47,172.82 C58.5870483,186.403207 77.4123548,191.324666 94.1646228,185.150144 C110.916891,178.975623 122.045126,163.013941 122.045126,145.16 C122.045126,127.306059 110.916891,111.344377 94.1646228,105.169856 C77.4123548,98.9953344 58.5870483,103.916793 47,117.5 C45.4695238,119.397 44.1297161,121.440207 43,123.6 C36.790535,134.334251 23.0664354,138.020624 12.3141785,131.84239 C1.56192168,125.664156 -2.16433206,111.950831 3.9826187,101.180659 C10.1295695,90.4104874 23.8320044,86.6443844 34.62,92.76 L34.62,92.76 C51.1417245,102.278796 71.9969472,99.5142858 85.4680848,86.0197201 C98.9392225,72.5251544 101.66749,51.6651595 92.12,35.16 L92.12,35.16 C91.3621422,33.7689062 90.7745783,32.2916026 90.37,30.76 C86.85,18.63 93.57,5.36 105.72,1.9 C116.857,-1.28004507 128.599508,4.45020696 132.945718,15.1859374 C137.291928,25.9216679 132.842738,38.2069024 122.63,43.67 C120.543372,44.7315111 118.575626,46.0120541 116.76,47.49 C103.342042,58.8697603 98.2978784,77.32624 104.062819,93.9486946 C109.82776,110.571149 125.21627,121.941241 142.798813,122.569518 C160.381356,123.197794 176.542156,112.955052 183.478818,96.7864634 C190.41548,80.6178747 186.701508,61.8484409 174.13,49.54 C171.478138,47.0635535 168.540788,44.9117344 165.38,43.13 C156.592473,37.9131967 152.384193,27.4599773 155.105992,17.6097245 C157.82779,7.75947168 166.806075,0.94993272 177.025392,0.985055595 C187.244708,1.02017847 196.175974,7.89127094 198.83,17.76 C200.477047,23.5675784 199.757989,29.7910219 196.83,35.07 L196.83,35.07 C191.230726,44.7543612 189.726194,56.2723116 192.65,67.07 L192.56,67.06 Z" id="Shape"></path>
        </g>
    </g>
</svg>